<mxfile host="app.diagrams.net" modified="2022-08-26T09:32:18.608Z" agent="5.0 (Macintosh; Intel Mac OS X 10_15_7) AppleWebKit/537.36 (KHTML, like Gecko) Chrome/104.0.0.0 Safari/537.36" etag="JcpzsZHfriw61_tPesSX" version="20.2.7" type="github">
  <diagram id="7WxGNDYHlxl3xqgLbLH1" name="Trang-1">
    <mxGraphModel dx="4053" dy="3353" grid="1" gridSize="10" guides="1" tooltips="1" connect="1" arrows="1" fold="1" page="1" pageScale="1" pageWidth="900" pageHeight="1600" math="0" shadow="0">
      <root>
        <mxCell id="0" />
        <mxCell id="1" parent="0" />
        <mxCell id="Mr8vC4rlbGJI1XictfMb-10" value="Agent" style="rounded=0;whiteSpace=wrap;html=1;fontSize=16;" vertex="1" parent="1">
          <mxGeometry x="40" y="20" width="120" height="60" as="geometry" />
        </mxCell>
        <mxCell id="Mr8vC4rlbGJI1XictfMb-11" value="Model_has_roles" style="rounded=0;whiteSpace=wrap;html=1;fontSize=16;" vertex="1" parent="1">
          <mxGeometry x="40" y="110" width="120" height="60" as="geometry" />
        </mxCell>
        <mxCell id="Mr8vC4rlbGJI1XictfMb-12" value="Campaigns" style="rounded=0;whiteSpace=wrap;html=1;fontSize=16;" vertex="1" parent="1">
          <mxGeometry x="640" y="20" width="120" height="60" as="geometry" />
        </mxCell>
        <mxCell id="Mr8vC4rlbGJI1XictfMb-13" value="Campaigin_commission" style="rounded=0;whiteSpace=wrap;html=1;fontSize=16;" vertex="1" parent="1">
          <mxGeometry x="220" y="110" width="170" height="60" as="geometry" />
        </mxCell>
        <mxCell id="Mr8vC4rlbGJI1XictfMb-14" value="Campaign_notifications" style="rounded=0;whiteSpace=wrap;html=1;fontSize=16;" vertex="1" parent="1">
          <mxGeometry x="400" y="110" width="190" height="60" as="geometry" />
        </mxCell>
        <mxCell id="Mr8vC4rlbGJI1XictfMb-15" value="Campaign_fields" style="rounded=0;whiteSpace=wrap;html=1;fontSize=16;" vertex="1" parent="1">
          <mxGeometry x="610" y="110" width="120" height="60" as="geometry" />
        </mxCell>
        <mxCell id="Mr8vC4rlbGJI1XictfMb-16" value="Cookies" style="rounded=0;whiteSpace=wrap;html=1;fontSize=16;" vertex="1" parent="1">
          <mxGeometry x="750" y="110" width="120" height="60" as="geometry" />
        </mxCell>
        <mxCell id="Mr8vC4rlbGJI1XictfMb-17" value="Campaign_landing_pages" style="rounded=0;whiteSpace=wrap;html=1;fontSize=16;" vertex="1" parent="1">
          <mxGeometry x="880" y="110" width="230" height="60" as="geometry" />
        </mxCell>
        <mxCell id="Mr8vC4rlbGJI1XictfMb-18" value="Shares" style="rounded=0;whiteSpace=wrap;html=1;fontSize=16;" vertex="1" parent="1">
          <mxGeometry x="1130" y="110" width="120" height="60" as="geometry" />
        </mxCell>
        <mxCell id="Mr8vC4rlbGJI1XictfMb-19" value="Channels" style="rounded=0;whiteSpace=wrap;html=1;fontSize=16;" vertex="1" parent="1">
          <mxGeometry x="1370" y="20" width="120" height="60" as="geometry" />
        </mxCell>
        <mxCell id="Mr8vC4rlbGJI1XictfMb-20" value="channel_cookies" style="rounded=0;whiteSpace=wrap;html=1;fontSize=16;" vertex="1" parent="1">
          <mxGeometry x="1370" y="110" width="120" height="60" as="geometry" />
        </mxCell>
        <mxCell id="Mr8vC4rlbGJI1XictfMb-21" value="Group" style="rounded=0;whiteSpace=wrap;html=1;fontSize=16;" vertex="1" parent="1">
          <mxGeometry x="2110" y="20" width="120" height="60" as="geometry" />
        </mxCell>
        <mxCell id="Mr8vC4rlbGJI1XictfMb-22" value="Group_user" style="rounded=0;whiteSpace=wrap;html=1;fontSize=16;" vertex="1" parent="1">
          <mxGeometry x="2110" y="110" width="120" height="60" as="geometry" />
        </mxCell>
        <mxCell id="Mr8vC4rlbGJI1XictfMb-23" value="Links" style="rounded=0;whiteSpace=wrap;html=1;fontSize=16;" vertex="1" parent="1">
          <mxGeometry x="2300" y="20" width="120" height="60" as="geometry" />
        </mxCell>
        <mxCell id="Mr8vC4rlbGJI1XictfMb-24" value="TraffÃ­cs" style="rounded=0;whiteSpace=wrap;html=1;fontSize=16;" vertex="1" parent="1">
          <mxGeometry x="2300" y="110" width="120" height="60" as="geometry" />
        </mxCell>
        <mxCell id="Mr8vC4rlbGJI1XictfMb-25" value="Kpi_commission" style="rounded=0;whiteSpace=wrap;html=1;fontSize=16;" vertex="1" parent="1">
          <mxGeometry x="2490" y="20" width="120" height="60" as="geometry" />
        </mxCell>
        <mxCell id="Mr8vC4rlbGJI1XictfMb-26" value="Kpi_results" style="rounded=0;whiteSpace=wrap;html=1;fontSize=16;" vertex="1" parent="1">
          <mxGeometry x="2490" y="110" width="120" height="60" as="geometry" />
        </mxCell>
        <mxCell id="Mr8vC4rlbGJI1XictfMb-27" value="Order" style="rounded=0;whiteSpace=wrap;html=1;fontSize=16;" vertex="1" parent="1">
          <mxGeometry x="2760" y="20" width="120" height="60" as="geometry" />
        </mxCell>
        <mxCell id="Mr8vC4rlbGJI1XictfMb-28" value="Order_line" style="rounded=0;whiteSpace=wrap;html=1;fontSize=16;" vertex="1" parent="1">
          <mxGeometry x="2690" y="110" width="120" height="60" as="geometry" />
        </mxCell>
        <mxCell id="Mr8vC4rlbGJI1XictfMb-29" value="Order_commissions" style="rounded=0;whiteSpace=wrap;html=1;fontSize=16;" vertex="1" parent="1">
          <mxGeometry x="2830" y="110" width="150" height="60" as="geometry" />
        </mxCell>
        <mxCell id="Mr8vC4rlbGJI1XictfMb-30" value="Programs" style="rounded=0;whiteSpace=wrap;html=1;fontSize=16;" vertex="1" parent="1">
          <mxGeometry x="3510" y="20" width="120" height="60" as="geometry" />
        </mxCell>
        <mxCell id="Mr8vC4rlbGJI1XictfMb-31" value="Levels" style="rounded=0;whiteSpace=wrap;html=1;fontSize=16;" vertex="1" parent="1">
          <mxGeometry x="3420" y="110" width="120" height="60" as="geometry" />
        </mxCell>
        <mxCell id="Mr8vC4rlbGJI1XictfMb-32" value="Compaign_commissions" style="rounded=0;whiteSpace=wrap;html=1;fontSize=16;" vertex="1" parent="1">
          <mxGeometry x="3570" y="110" width="210" height="60" as="geometry" />
        </mxCell>
        <mxCell id="Mr8vC4rlbGJI1XictfMb-33" value="Shares" style="rounded=0;whiteSpace=wrap;html=1;fontSize=16;" vertex="1" parent="1">
          <mxGeometry x="3880" y="20" width="120" height="60" as="geometry" />
        </mxCell>
        <mxCell id="Mr8vC4rlbGJI1XictfMb-34" value="Short_links" style="rounded=0;whiteSpace=wrap;html=1;fontSize=16;" vertex="1" parent="1">
          <mxGeometry x="3880" y="110" width="120" height="60" as="geometry" />
        </mxCell>
        <mxCell id="Mr8vC4rlbGJI1XictfMb-35" value="Tags" style="rounded=0;whiteSpace=wrap;html=1;fontSize=16;" vertex="1" parent="1">
          <mxGeometry x="4320" y="20" width="120" height="60" as="geometry" />
        </mxCell>
        <mxCell id="Mr8vC4rlbGJI1XictfMb-36" value="Campaign_tag" style="rounded=0;whiteSpace=wrap;html=1;fontSize=16;" vertex="1" parent="1">
          <mxGeometry x="4260" y="110" width="120" height="60" as="geometry" />
        </mxCell>
        <mxCell id="Mr8vC4rlbGJI1XictfMb-37" value="Product_tag" style="rounded=0;whiteSpace=wrap;html=1;fontSize=16;" vertex="1" parent="1">
          <mxGeometry x="4400" y="110" width="120" height="60" as="geometry" />
        </mxCell>
        <mxCell id="Mr8vC4rlbGJI1XictfMb-38" value="Vendors" style="rounded=0;whiteSpace=wrap;html=1;fontSize=16;" vertex="1" parent="1">
          <mxGeometry x="2190" y="-180" width="120" height="60" as="geometry" />
        </mxCell>
        <mxCell id="Mr8vC4rlbGJI1XictfMb-39" value="User_notification" style="rounded=0;whiteSpace=wrap;html=1;fontSize=16;" vertex="1" parent="1">
          <mxGeometry x="4770" y="20" width="130" height="60" as="geometry" />
        </mxCell>
        <mxCell id="Mr8vC4rlbGJI1XictfMb-40" value="User_setting" style="rounded=0;whiteSpace=wrap;html=1;fontSize=16;" vertex="1" parent="1">
          <mxGeometry x="4990" y="20" width="120" height="60" as="geometry" />
        </mxCell>
        <mxCell id="Mr8vC4rlbGJI1XictfMb-41" value="Vendor_settings" style="rounded=0;whiteSpace=wrap;html=1;fontSize=16;" vertex="1" parent="1">
          <mxGeometry x="5210" y="20" width="120" height="60" as="geometry" />
        </mxCell>
        <mxCell id="Mr8vC4rlbGJI1XictfMb-42" value="Wallet_transactions" style="rounded=0;whiteSpace=wrap;html=1;fontSize=16;" vertex="1" parent="1">
          <mxGeometry x="5410" y="20" width="150" height="60" as="geometry" />
        </mxCell>
        <mxCell id="Mr8vC4rlbGJI1XictfMb-43" value="&lt;font style=&quot;font-size: 14px;&quot;&gt;Advertisements&lt;/font&gt;" style="rounded=0;whiteSpace=wrap;html=1;" vertex="1" parent="1">
          <mxGeometry x="-140" y="20" width="120" height="60" as="geometry" />
        </mxCell>
        <mxCell id="Mr8vC4rlbGJI1XictfMb-44" value="Customers" style="rounded=0;whiteSpace=wrap;html=1;fontSize=14;" vertex="1" parent="1">
          <mxGeometry x="1560" y="20" width="120" height="60" as="geometry" />
        </mxCell>
        <mxCell id="Mr8vC4rlbGJI1XictfMb-45" value="&lt;span style=&quot;box-sizing: border-box; font-weight: bolder; color: rgb(68, 68, 68); font-family: sans-serif; font-size: 13.12px; text-align: left; background-color: rgb(255, 255, 255);&quot;&gt;Flows&lt;/span&gt;" style="rounded=0;whiteSpace=wrap;html=1;fontSize=14;" vertex="1" parent="1">
          <mxGeometry x="1900" y="20" width="120" height="60" as="geometry" />
        </mxCell>
        <mxCell id="Mr8vC4rlbGJI1XictfMb-46" value="&lt;span style=&quot;box-sizing: border-box; font-weight: bolder; color: rgb(68, 68, 68); font-family: sans-serif; font-size: 13.12px; text-align: left; background-color: rgb(255, 255, 255);&quot;&gt;Customer_fields&lt;/span&gt;" style="rounded=0;whiteSpace=wrap;html=1;fontSize=14;" vertex="1" parent="1">
          <mxGeometry x="1730" y="20" width="120" height="60" as="geometry" />
        </mxCell>
        <mxCell id="Mr8vC4rlbGJI1XictfMb-47" value="Payouts" style="rounded=0;whiteSpace=wrap;html=1;fontSize=14;" vertex="1" parent="1">
          <mxGeometry x="3030" y="20" width="120" height="60" as="geometry" />
        </mxCell>
        <mxCell id="Mr8vC4rlbGJI1XictfMb-48" value="&lt;span style=&quot;box-sizing: border-box; font-weight: bolder; color: rgb(68, 68, 68); font-family: sans-serif; font-size: 13.12px; text-align: left; background-color: rgb(255, 255, 255);&quot;&gt;Products&lt;/span&gt;" style="rounded=0;whiteSpace=wrap;html=1;fontSize=14;" vertex="1" parent="1">
          <mxGeometry x="3230" y="20" width="120" height="60" as="geometry" />
        </mxCell>
        <mxCell id="Mr8vC4rlbGJI1XictfMb-49" value="&lt;span style=&quot;box-sizing: border-box; color: rgb(68, 68, 68); font-family: sans-serif; font-size: 16px; text-align: left; background-color: rgb(255, 255, 255);&quot;&gt;Subscriptions&lt;/span&gt;" style="rounded=0;whiteSpace=wrap;html=1;fontSize=16;" vertex="1" parent="1">
          <mxGeometry x="4080" y="20" width="120" height="60" as="geometry" />
        </mxCell>
        <mxCell id="Mr8vC4rlbGJI1XictfMb-50" value="Templates" style="rounded=0;whiteSpace=wrap;html=1;fontSize=16;" vertex="1" parent="1">
          <mxGeometry x="4580" y="20" width="120" height="60" as="geometry" />
        </mxCell>
      </root>
    </mxGraphModel>
  </diagram>
</mxfile>
